<?xml version="1.0" encoding="UTF-8"?>
<!-- Created with Inkscape (http://www.inkscape.org/) -->
<svg width="28" height="28" version="1.1" viewBox="0 0 7.4084 7.4084" xmlns="http://www.w3.org/2000/svg">
 <g transform="matrix(1.4 0 0 1.4 -65.36 -118.24)" stroke-width=".71427">
  <g stroke-width="0">
   <path d="m51.976 87.1a2.6458 2.6458 0 0 1-2.6458 2.6458 2.6458 2.6458 0 0 1-2.6458-2.6458 2.6458 2.6458 0 0 1 2.6458-2.6458 2.6458 2.6458 0 0 1 2.6458 2.6458z" fill="#fff"/>
   <g fill="#ccc">
    <path d="m50.198 87.774a0.56421 0.56421 0 0 1-0.56421 0.56421 0.56421 0.56421 0 0 1-0.56421-0.56421 0.56421 0.56421 0 0 1 0.56421-0.56421 0.56421 0.56421 0 0 1 0.56421 0.56421z"/>
    <path d="m49.161 86.409a1.0008 1.0008 0 0 1-1.0008 1.0008 1.0008 1.0008 0 0 1-1.0008-1.0008 1.0008 1.0008 0 0 1 1.0008-1.0008 1.0008 1.0008 0 0 1 1.0008 1.0008z"/>
    <path d="m48.603 88.342a0.1251 0.1251 0 0 1-0.1251 0.1251 0.1251 0.1251 0 0 1-0.1251-0.1251 0.1251 0.1251 0 0 1 0.1251-0.1251 0.1251 0.1251 0 0 1 0.1251 0.1251z"/>
    <path d="m51.085 87.774a0.16732 0.16732 0 0 1-0.16732 0.16732 0.16732 0.16732 0 0 1-0.16732-0.16732 0.16732 0.16732 0 0 1 0.16732-0.16732 0.16732 0.16732 0 0 1 0.16732 0.16732z"/>
    <path d="m50.882 85.967a0.55577 0.55577 0 0 1-0.55577 0.55576 0.55577 0.55577 0 0 1-0.55576-0.55576 0.55577 0.55577 0 0 1 0.55576-0.55577 0.55577 0.55577 0 0 1 0.55577 0.55577z"/>
    <path d="m51.406 86.87a0.17577 0.17577 0 0 1-0.17577 0.17577 0.17577 0.17577 0 0 1-0.17576-0.17577 0.17577 0.17577 0 0 1 0.17576-0.17577 0.17577 0.17577 0 0 1 0.17577 0.17577z"/>
   </g>
  </g>
 </g>
</svg>
