<?xml version="1.0" encoding="UTF-8"?>
<!-- Created with Inkscape (http://www.inkscape.org/) -->
<svg width="70" height="32" version="1.1" viewBox="0 0 18.521 8.4667" xmlns="http://www.w3.org/2000/svg">
 <g fill="#fff" stroke-width="0">
  <path d="m4.2655 6.9417-0.16245-0.25109-0.25109-0.16245 0.25109-0.16245 0.16245-0.25109 0.16245 0.25109 0.25109 0.16245-0.25109 0.16245z"/>
  <path d="m3.95 1.9592-0.13801-0.21332-0.21332-0.13801 0.21332-0.13801 0.13801-0.21332 0.13801 0.21332 0.21332 0.13801-0.21332 0.13801z"/>
  <path d="m6.3633 3.8711-0.3335-0.51548-0.51548-0.3335 0.51548-0.3335 0.3335-0.51548 0.3335 0.51548 0.51548 0.3335-0.51548 0.3335z"/>
  <path d="m3.1389 4.2644-0.072847-0.1126-0.1126-0.072847 0.1126-0.072847 0.072847-0.1126 0.072847 0.1126 0.1126 0.072847-0.1126 0.072847z"/>
  <path d="m6.3213 5.7194-0.089138-0.13778-0.13778-0.089138 0.13778-0.089138 0.089138-0.13778 0.089138 0.13778 0.13778 0.089138-0.13778 0.089138z"/>
  <path d="m8.8258 2.1624-0.097284-0.15037-0.15037-0.097283 0.15037-0.097284 0.097284-0.15037 0.097283 0.15037 0.15037 0.097284-0.15037 0.097283z"/>
  <path d="m9.4472 7.1603-0.25205-0.38958-0.38958-0.25205 0.38958-0.25205 0.25205-0.38958 0.25205 0.38958 0.38958 0.25205-0.38958 0.25205z"/>
  <path d="m8.3163 4.9854-0.12172-0.18814-0.18814-0.12172 0.18814-0.12172 0.12172-0.18814 0.12172 0.18814 0.18814 0.12172-0.18814 0.12172z"/>
 </g>
</svg>
